<svg width="20" height="20" viewBox="0 0 20 20" fill="none" xmlns="http://www.w3.org/2000/svg">
<path d="M9.99998 0.833328C4.95831 0.833328 0.833313 4.95833 0.833313 10C0.833313 15.0417 4.95831 19.1667 9.99998 19.1667C15.0416 19.1667 19.1666 15.0417 19.1666 10C19.1666 4.95833 15.0416 0.833328 9.99998 0.833328ZM9.99998 17.3333C5.95748 17.3333 2.66665 14.0425 2.66665 10C2.66665 5.9575 5.95748 2.66666 9.99998 2.66666C14.0425 2.66666 17.3333 5.9575 17.3333 10C17.3333 14.0425 14.0425 17.3333 9.99998 17.3333ZM14.2075 5.94833L8.16665 11.9892L5.79248 9.62416L4.49998 10.9167L8.16665 14.5833L15.5 7.25L14.2075 5.94833Z" fill="#2DD45C"/>
</svg>
