<svg width="33" height="33" viewBox="0 0 33 33" fill="none" xmlns="http://www.w3.org/2000/svg">
<rect x="2" y="2" width="29" height="29" rx="14.5" fill="#2DD45C"/>
<path d="M16.5 6.08333C10.7708 6.08333 6.08334 10.7708 6.08334 16.5C6.08334 22.2292 10.7708 26.9167 16.5 26.9167C22.2292 26.9167 26.9167 22.2292 26.9167 16.5C26.9167 10.7708 22.2292 6.08333 16.5 6.08333ZM16.5 24.8333C11.9063 24.8333 8.16668 21.0937 8.16668 16.5C8.16668 11.9062 11.9063 8.16666 16.5 8.16666C21.0938 8.16666 24.8333 11.9062 24.8333 16.5C24.8333 21.0937 21.0938 24.8333 16.5 24.8333ZM21.2813 11.8958L14.4167 18.7604L11.7188 16.0729L10.25 17.5417L14.4167 21.7083L22.75 13.375L21.2813 11.8958Z" fill="#DBFFC7"/>
<rect x="2" y="2" width="29" height="29" rx="14.5" stroke="#DBFFC7" stroke-width="4"/>
</svg>
