<svg width="23" height="23" viewBox="0 0 23 23" fill="none" xmlns="http://www.w3.org/2000/svg">
<path d="M15.6026 10.2724C15.6696 10.3391 15.7227 10.4185 15.7589 10.5058C15.7951 10.5931 15.8138 10.6867 15.8138 10.7813C15.8138 10.8758 15.7951 10.9694 15.7589 11.0567C15.7227 11.144 15.6696 11.2234 15.6026 11.2901L11.2901 15.6026C11.2234 15.6696 11.144 15.7227 11.0567 15.7589C10.9694 15.7951 10.8758 15.8138 10.7812 15.8138C10.6867 15.8138 10.5931 15.7951 10.5058 15.7589C10.4184 15.7227 10.3391 15.6696 10.2724 15.6026L8.11612 13.4464C8.04929 13.3796 7.99628 13.3002 7.96012 13.2129C7.92395 13.1256 7.90533 13.032 7.90533 12.9375C7.90533 12.843 7.92395 12.7494 7.96012 12.6621C7.99628 12.5748 8.04929 12.4955 8.11612 12.4286C8.25108 12.2937 8.43413 12.2178 8.62499 12.2178C8.7195 12.2178 8.81308 12.2365 8.90039 12.2726C8.98771 12.3088 9.06704 12.3618 9.13387 12.4286L10.7812 14.0774L14.5849 10.2724C14.6516 10.2054 14.7309 10.1523 14.8183 10.1161C14.9056 10.0799 14.9992 10.0612 15.0937 10.0612C15.1883 10.0612 15.2819 10.0799 15.3692 10.1161C15.4565 10.1523 15.5359 10.2054 15.6026 10.2724Z" fill="black"/>
<path d="M5.03125 0C5.22187 0 5.40469 0.0757252 5.53948 0.210517C5.67427 0.345309 5.75 0.528126 5.75 0.71875V1.4375H17.25V0.71875C17.25 0.528126 17.3257 0.345309 17.4605 0.210517C17.5953 0.0757252 17.7781 0 17.9688 0C18.1594 0 18.3422 0.0757252 18.477 0.210517C18.6118 0.345309 18.6875 0.528126 18.6875 0.71875V1.4375H20.125C20.8875 1.4375 21.6188 1.7404 22.1579 2.27957C22.6971 2.81874 23 3.55 23 4.3125V20.125C23 20.8875 22.6971 21.6188 22.1579 22.1579C21.6188 22.6971 20.8875 23 20.125 23H2.875C2.1125 23 1.38124 22.6971 0.842068 22.1579C0.302901 21.6188 0 20.8875 0 20.125V4.3125C0 3.55 0.302901 2.81874 0.842068 2.27957C1.38124 1.7404 2.1125 1.4375 2.875 1.4375H4.3125V0.71875C4.3125 0.528126 4.38823 0.345309 4.52302 0.210517C4.65781 0.0757252 4.84063 0 5.03125 0V0ZM1.4375 5.75V20.125C1.4375 20.5062 1.58895 20.8719 1.85853 21.1415C2.12812 21.411 2.49375 21.5625 2.875 21.5625H20.125C20.5062 21.5625 20.8719 21.411 21.1415 21.1415C21.411 20.8719 21.5625 20.5062 21.5625 20.125V5.75H1.4375Z" fill="black"/>
</svg>
