<svg width="72" height="108" viewBox="0 0 72 108" fill="none" xmlns="http://www.w3.org/2000/svg">
<g opacity="0.2" clip-path="url(#clip0_4_83)">
<path d="M0.113258 81.3521L0 81.6442L62.8871 106.272L63.0004 105.98L0.113258 81.3521Z" fill="#CACACA"/>
<path d="M45.0496 0.0480862L10.0939 9.30779C9.95414 9.34756 9.82504 9.41843 9.71619 9.51515C9.59473 9.62204 9.49111 9.7478 9.40926 9.88764C9.31936 10.0391 9.25 10.202 9.20303 10.3719C9.15325 10.5499 9.12778 10.7338 9.12729 10.9187V63.0266C9.12739 63.2085 9.15289 63.3896 9.20303 63.5644C9.24914 63.7272 9.31862 63.8824 9.40926 64.025C9.49064 64.1549 9.59461 64.2689 9.71619 64.3618C9.82684 64.4466 9.95658 64.5026 10.0939 64.5251L45.0496 69.6968C45.2523 69.728 45.4594 69.712 45.655 69.65C45.8411 69.5899 46.0112 69.488 46.1523 69.352C46.2986 69.2102 46.4135 69.0388 46.4893 68.8493C46.5728 68.6401 46.6151 68.4166 46.6138 68.1912V1.3712C46.6161 1.15039 46.5737 0.931416 46.4893 0.727525C46.4148 0.548615 46.2993 0.389895 46.1523 0.26426C46.0091 0.143726 45.8381 0.0612027 45.655 0.0242451C45.4541 -0.0147696 45.2469 -0.00660997 45.0496 0.0480862Z" fill="#F2F2F2"/>
<path d="M10.9556 10.77C10.8569 10.7991 10.7659 10.85 10.6893 10.919C10.6041 10.9944 10.5314 11.0831 10.474 11.1816C10.4112 11.2888 10.363 11.4039 10.3308 11.5241C10.2968 11.6495 10.2802 11.779 10.2814 11.909V61.9018C10.28 62.0297 10.2966 62.1572 10.3308 62.2804C10.3624 62.3953 10.4105 62.5049 10.4738 62.6057C10.5307 62.6975 10.6036 62.7783 10.6889 62.8441C10.7668 62.9045 10.8582 62.9448 10.9552 62.9615L43.6982 67.3942C43.8376 67.4113 43.9791 67.3957 44.1116 67.3486C44.2386 67.3026 44.3537 67.2285 44.4483 67.1316C44.5469 67.0302 44.6235 66.9094 44.6733 66.7768C44.7282 66.6307 44.7548 66.4754 44.7518 66.3193V3.45933C44.7554 3.30609 44.7287 3.15365 44.6733 3.01084C44.6244 2.88544 44.5474 2.77306 44.4483 2.68242C44.3525 2.59596 44.2368 2.53489 44.1116 2.50474C43.9755 2.47319 43.8339 2.47417 43.6982 2.50759L10.9556 10.77Z" fill="white"/>
<path d="M12.3406 12.7687C12.2731 12.7861 12.2111 12.8203 12.1602 12.868C12.1013 12.9225 12.0517 12.9864 12.0135 13.0571C11.9699 13.1365 11.9367 13.2213 11.9147 13.3093C11.8903 13.4035 11.8779 13.5005 11.8776 13.5979V20.5609C11.877 20.6532 11.8893 20.7451 11.9139 20.834C11.9344 20.9098 11.9679 20.9814 12.0128 21.0457C12.0505 21.1003 12.101 21.1447 12.1599 21.1749C12.2158 21.2024 12.279 21.2114 12.3403 21.2004L41.606 16.1361C41.7026 16.1182 41.794 16.0788 41.8733 16.0206C41.9588 15.9582 42.0329 15.8814 42.0924 15.7936C42.1567 15.6996 42.2067 15.5964 42.2407 15.4874C42.2766 15.3733 42.295 15.2544 42.2952 15.1348V6.60878C42.2962 6.49631 42.2777 6.38451 42.2407 6.27838C42.209 6.18692 42.1584 6.1032 42.0924 6.03265C42.0316 5.96705 41.9544 5.91908 41.8688 5.89374C41.7833 5.8684 41.6925 5.86663 41.606 5.88862L12.3406 12.7687Z" fill="#F2F2F2"/>
<path d="M12.3406 24.5899C12.274 24.6021 12.2114 24.6302 12.158 24.6719C12.0993 24.7172 12.049 24.7726 12.0097 24.8355C11.9661 24.9043 11.9328 24.9792 11.9108 25.0577C11.8876 25.1414 11.8763 25.2281 11.8775 25.3151V40.1975C11.8764 40.2826 11.8879 40.3673 11.9118 40.4489C11.9331 40.5223 11.9666 40.5915 12.0107 40.6537C12.0498 40.7096 12.1004 40.7565 12.1589 40.7913C12.2142 40.8239 12.2773 40.8411 12.3414 40.8409L41.6068 40.0026C41.7013 39.998 41.7936 39.9726 41.8771 39.9281C41.9614 39.8831 42.0361 39.822 42.0972 39.7484C42.1611 39.6716 42.2109 39.5841 42.2443 39.4898C42.2796 39.3902 42.2971 39.2851 42.2958 39.1793V20.9562C42.2977 20.8532 42.2802 20.7508 42.2443 20.6544C42.2118 20.5674 42.1618 20.4882 42.0972 20.4218C42.0355 20.3586 41.9603 20.3104 41.8771 20.281C41.7901 20.2508 41.6972 20.2416 41.6059 20.2543L12.3406 24.5899Z" fill="#F2F2F2"/>
<path d="M14.9047 13.1719L37.9713 7.91701V9.69259L14.9047 14.6944V13.1719Z" fill="white"/>
<path d="M14.9449 16.3719L38.026 11.6481V12.4729L14.9449 17.0789V16.3719Z" fill="white"/>
<path d="M14.9449 17.6228L38.026 13.1074V13.9322L14.9449 18.33V17.6228Z" fill="white"/>
<path d="M14.9449 18.8738L38.026 14.5667V15.3916L14.9449 19.5809V18.8738Z" fill="white"/>
<path d="M27.7426 40.4291L39.4475 40.0961C39.4882 40.0949 39.5285 40.0868 39.5666 40.0722C39.6051 40.0575 39.6411 40.0368 39.6734 40.011C39.7069 39.9842 39.7364 39.9527 39.7611 39.9175C39.787 39.8803 39.8078 39.8397 39.8229 39.7968C39.8538 39.7101 39.8618 39.6167 39.8461 39.5259C39.8386 39.4821 39.8252 39.4395 39.8064 39.3993C39.788 39.3596 39.7638 39.3229 39.7347 39.2902L32.0185 30.6945C31.985 30.6564 31.9432 30.6266 31.8963 30.6075C31.8523 30.5901 31.8047 30.5833 31.7576 30.5877C31.7087 30.5924 31.6614 30.6078 31.619 30.6327C31.5719 30.6606 31.5306 30.6974 31.4975 30.7411L29.7023 33.0722C29.6348 33.1616 29.5503 33.2366 29.4538 33.2929C29.3676 33.343 29.2714 33.3731 29.1721 33.3812C29.0762 33.3885 28.98 33.3727 28.8913 33.3351C28.7965 33.2941 28.7123 33.2317 28.6453 33.1528L23.3547 27.044C23.3252 27.0092 23.2878 26.9821 23.2457 26.965C23.2064 26.9495 23.164 26.9441 23.1221 26.9492C23.078 26.955 23.0358 26.9706 22.9985 26.9949C22.956 27.0227 22.9192 27.0583 22.89 27.1L13.5949 40.1077C13.574 40.1372 13.557 40.1692 13.5442 40.203C13.5309 40.2379 13.5216 40.2742 13.5163 40.3113C13.5109 40.349 13.5094 40.3872 13.5121 40.4252C13.5148 40.4632 13.5217 40.5006 13.5327 40.537C13.5431 40.5715 13.5579 40.6046 13.5766 40.6353C13.5934 40.6631 13.6143 40.6882 13.6384 40.7098C13.6606 40.7298 13.6862 40.7456 13.7139 40.7566C13.7408 40.7672 13.7695 40.7722 13.7984 40.7714L27.7564 40.3687L27.7426 40.4291Z" fill="white"/>
<path d="M15.8352 26.1523C15.9864 26.1318 16.1402 26.1532 16.2801 26.2144C16.4225 26.278 16.548 26.3743 16.6465 26.4958C16.7566 26.6318 16.8404 26.7874 16.8936 26.9544C16.9551 27.145 16.9859 27.3442 16.9847 27.5445C16.9847 27.752 16.954 27.9583 16.8936 28.1567C16.8381 28.3415 16.7548 28.5166 16.6465 28.676C16.5484 28.8214 16.4244 28.9473 16.2807 29.0474C16.1484 29.1397 15.9957 29.1981 15.8359 29.2177C15.6847 29.2351 15.5317 29.2106 15.3934 29.147C15.2532 29.0807 15.1302 28.9827 15.0341 28.8606C14.9264 28.7248 14.8444 28.5703 14.7922 28.4047C14.7326 28.2168 14.7029 28.0206 14.704 27.8233C14.704 27.6191 14.7337 27.416 14.7922 27.2204C14.8464 27.0375 14.9277 26.8639 15.0334 26.7055C15.1296 26.5599 15.2514 26.4331 15.3928 26.3314C15.5238 26.2368 15.6756 26.1754 15.8352 26.1523Z" fill="white"/>
<path d="M12.3406 44.3365C12.2759 44.3384 12.2129 44.3574 12.158 44.3917C12.0995 44.4285 12.0492 44.4769 12.0102 44.5339C11.9662 44.5973 11.9328 44.6675 11.9113 44.7418C11.8877 44.8238 11.8763 44.909 11.8775 44.9944V59.8769C11.8766 59.9636 11.8882 60.05 11.9118 60.1334C11.9337 60.211 11.967 60.2848 12.0107 60.3524C12.05 60.4141 12.1003 60.468 12.1589 60.5114C12.2127 60.5514 12.2753 60.5775 12.3415 60.5875L41.6059 63.9984C41.6976 64.008 41.7901 63.9959 41.8763 63.9632C41.9597 63.931 42.0349 63.8805 42.0964 63.8154C42.1608 63.7471 42.2108 63.6664 42.2434 63.5781C42.2793 63.4811 42.2967 63.3782 42.295 63.2747V45.0523C42.2964 44.9469 42.2789 44.8422 42.2434 44.743C42.2102 44.6501 42.1604 44.564 42.0964 44.4891C42.0352 44.4173 41.9604 44.3586 41.8763 44.3164C41.7922 44.2743 41.6998 44.2518 41.6059 44.2503L12.3406 44.3365Z" fill="#F2F2F2"/>
<path d="M27.7426 62.4122L39.447 63.7788C39.4868 63.7836 39.5271 63.7813 39.5661 63.7722C39.604 63.7632 39.6401 63.7477 39.6728 63.7264C39.7062 63.7045 39.7359 63.6772 39.7605 63.6456C39.7867 63.6117 39.8075 63.574 39.8223 63.5338C39.8381 63.4917 39.8479 63.4475 39.8516 63.4026C39.8553 63.357 39.8533 63.3111 39.8455 63.266C39.8378 63.2204 39.8244 63.1759 39.8059 63.1335C39.7871 63.0908 39.763 63.0506 39.7341 63.0141L32.0185 53.2984C31.9851 53.2558 31.9435 53.2204 31.8962 53.1943C31.8535 53.1708 31.8061 53.1571 31.7574 53.1543C31.71 53.1516 31.6626 53.1601 31.6189 53.1791C31.5722 53.1998 31.5306 53.2308 31.4974 53.2697L29.7023 55.3397C29.6346 55.4195 29.5496 55.4826 29.4538 55.5244C29.365 55.5624 29.2684 55.5787 29.1721 55.5718C29.0732 55.5642 28.9773 55.5345 28.8914 55.4849C28.7958 55.4294 28.7122 55.3553 28.6455 55.267L23.3547 48.3893C23.3253 48.3504 23.2881 48.3181 23.2456 48.2945C23.2076 48.2737 23.1652 48.2622 23.122 48.2609C23.0792 48.2599 23.0368 48.2694 22.9984 48.2886C22.956 48.3098 22.9187 48.3403 22.8893 48.3777L13.5949 60.0369C13.5739 60.0636 13.5568 60.0933 13.5442 60.1248C13.5308 60.1583 13.5215 60.1933 13.5163 60.229C13.5109 60.2666 13.5094 60.3046 13.5121 60.3424C13.5148 60.3814 13.5217 60.4201 13.5326 60.4576C13.5432 60.4941 13.5579 60.5293 13.5765 60.5624C13.5934 60.5928 13.6142 60.6209 13.6383 60.646C13.6603 60.669 13.6858 60.6885 13.7138 60.7037C13.74 60.718 13.7687 60.7272 13.7983 60.7308L27.7566 62.3545L27.7426 62.4122Z" fill="white"/>
<path d="M15.8352 46.4063C15.9919 46.4092 16.1451 46.4526 16.2801 46.5325C16.4234 46.618 16.5479 46.7321 16.6458 46.8677C16.7549 47.0178 16.8384 47.1849 16.8929 47.3624C16.9538 47.5576 16.9845 47.7611 16.984 47.9656C16.9847 48.1689 16.954 48.371 16.8929 48.5647C16.8388 48.7389 16.7552 48.9023 16.6458 49.048C16.5479 49.179 16.4232 49.2876 16.2801 49.3662C16.1436 49.4402 15.9902 49.4767 15.8352 49.4719C15.6787 49.4656 15.5263 49.4191 15.3927 49.3368C15.2516 49.2493 15.1294 49.1342 15.0334 48.9983C14.927 48.8489 14.8455 48.683 14.7922 48.5072C14.7332 48.3148 14.7035 48.1145 14.704 47.9131C14.7033 47.713 14.733 47.514 14.7922 47.3229C14.8451 47.1504 14.9266 46.9882 15.0334 46.843C15.1294 46.7116 15.2518 46.6019 15.3927 46.5211C15.5277 46.4445 15.6803 46.405 15.8352 46.4063Z" fill="white"/>
<path d="M20.5953 19.5459C20.4851 19.5665 20.3811 19.6121 20.291 19.679C20.1942 19.7509 20.1106 19.8392 20.0438 19.9398C19.9713 20.0479 19.9152 20.1662 19.8773 20.2909C19.8367 20.422 19.8159 20.5584 19.8155 20.6956V76.998C19.8167 77.2709 19.8957 77.5377 20.0433 77.7666C20.1102 77.8712 20.1937 77.9641 20.2905 78.0415C20.3799 78.1135 20.4838 78.1649 20.5949 78.1924L62.1074 87.8205C62.2737 87.8607 62.4465 87.8655 62.6146 87.8344C62.766 87.8059 62.9086 87.7421 63.0311 87.6482C63.1519 87.5542 63.2486 87.4325 63.313 87.2933C63.3831 87.1395 63.4186 86.972 63.417 86.8028V13.3891C63.4182 13.218 63.3828 13.0486 63.313 12.8925C63.2482 12.749 63.1518 12.6221 63.0311 12.5215C62.9097 12.421 62.7674 12.3492 62.6148 12.3112C62.4486 12.2706 62.2758 12.2655 62.1075 12.2961L20.5953 19.5459Z" fill="#E6E6E6"/>
<path d="M21.5538 20.9742C21.4414 20.9963 21.3355 21.0436 21.2439 21.1127C21.1457 21.1863 21.0611 21.2765 20.9937 21.3792C20.9209 21.4892 20.8649 21.6096 20.8275 21.7362C20.7878 21.8694 20.7683 22.0077 20.7697 22.1467V76.0552C20.7677 76.3318 20.8455 76.603 20.9937 76.8362C21.0612 76.9432 21.1457 77.0383 21.2439 77.1179C21.3348 77.192 21.4405 77.2456 21.5538 77.275L60.3997 85.9798C60.5646 86.0155 60.7352 86.0155 60.9001 85.9798C61.0495 85.9473 61.1891 85.8795 61.3073 85.782C61.4255 85.6845 61.5189 85.5602 61.5797 85.4192C61.6464 85.2633 61.6789 85.0947 61.6747 84.9251V15.7483C61.6784 15.5768 61.646 15.4065 61.5797 15.2485C61.5186 15.1034 61.4257 14.974 61.3081 14.8699C61.1905 14.7657 61.051 14.6895 60.9001 14.6468C60.7373 14.6014 60.5667 14.5912 60.3997 14.617L21.5538 20.9742Z" fill="white"/>
<path d="M26.5133 28.3162C26.461 28.3224 26.4108 28.3406 26.3666 28.3694C26.3201 28.3997 26.2795 28.4384 26.2469 28.4834C26.2118 28.5316 26.1846 28.5851 26.1663 28.6419C26.1467 28.702 26.1366 28.7648 26.1366 28.8281V30.9864C26.1363 31.0477 26.1464 31.1087 26.1663 31.1667C26.184 31.2186 26.2114 31.2668 26.2468 31.3086C26.2795 31.3472 26.3204 31.3781 26.3664 31.3989C26.4126 31.4192 26.4631 31.4275 26.5132 31.4229L52.6783 29.1034C52.7494 29.0967 52.8185 29.0756 52.8812 29.0413C52.9441 29.0072 53.0003 28.9619 53.0472 28.9077C53.095 28.8526 53.133 28.7896 53.1594 28.7215C53.1865 28.6516 53.2007 28.5774 53.201 28.5024V25.9535C53.2013 25.8811 53.1873 25.8094 53.1598 25.7425C53.1341 25.6805 53.0959 25.6245 53.0476 25.5782C53.0002 25.5329 52.9435 25.4985 52.8816 25.4774C52.8163 25.4552 52.7469 25.4477 52.6783 25.4554L26.5133 28.3162Z" fill="#6C63FF"/>
<path d="M26.3719 35.4862C26.3588 35.487 26.3461 35.4909 26.3348 35.4977C26.3232 35.5047 26.313 35.5139 26.3049 35.5248C26.2961 35.5364 26.2893 35.5495 26.2848 35.5634C26.2798 35.5783 26.2773 35.5939 26.2773 35.6096V36.4529C26.2773 36.4683 26.2798 36.4836 26.2848 36.4982C26.2892 36.5114 26.2961 36.5237 26.3049 36.5345C26.3131 36.5444 26.3233 36.5525 26.3348 36.5581C26.3463 36.5636 26.3591 36.5661 26.3719 36.5654L53.0048 35.1148C53.0225 35.1138 53.0398 35.1091 53.0557 35.1011C53.0714 35.0931 53.0855 35.0823 53.0972 35.0691C53.1218 35.0416 53.1355 35.0059 53.1355 34.9689V33.9747C53.1356 33.9564 53.1321 33.9382 53.1253 33.9213C53.1188 33.9054 53.1093 33.891 53.0972 33.8789C53.0852 33.8668 53.0707 33.8574 53.0548 33.8514C53.0388 33.8454 53.0218 33.8428 53.0048 33.8439L26.3719 35.4862Z" fill="#CCCCCC"/>
<path d="M26.3719 38.2291C26.3588 38.2297 26.3461 38.2334 26.3348 38.24C26.3232 38.2468 26.313 38.2559 26.3049 38.2666C26.2961 38.2781 26.2893 38.2911 26.2848 38.3049C26.2798 38.3197 26.2773 38.3353 26.2773 38.3509V39.1943C26.2773 39.2098 26.2798 39.2251 26.2848 39.2398C26.2892 39.2534 26.296 39.266 26.3049 39.2771C26.3131 39.2871 26.3233 39.2953 26.3348 39.3012C26.3463 39.3069 26.3591 39.3096 26.3719 39.3091L53.0048 38.3448C53.0224 38.3443 53.0398 38.3401 53.0557 38.3324C53.0714 38.3247 53.0855 38.3141 53.0972 38.3011C53.1218 38.274 53.1355 38.2385 53.1355 38.2018V37.207C53.1356 37.1886 53.1321 37.1705 53.1253 37.1535C53.1188 37.1375 53.1093 37.1229 53.0972 37.1106C53.0854 37.0986 53.0713 37.0891 53.0557 37.0827C53.0395 37.0762 53.0222 37.0732 53.0048 37.074L26.3719 38.2291Z" fill="#CCCCCC"/>
<path d="M26.3719 40.9722C26.3589 40.9725 26.3461 40.976 26.3348 40.9824C26.3233 40.989 26.3133 40.9978 26.3053 41.0083C26.2965 41.0197 26.2896 41.0325 26.2851 41.0462C26.2802 41.061 26.2777 41.0765 26.2777 41.0921V41.9355C26.2777 41.951 26.2802 41.9665 26.2851 41.9812C26.2896 41.9947 26.2964 42.0073 26.3053 42.0184C26.3134 42.0287 26.3236 42.0372 26.3352 42.0433C26.3466 42.0492 26.3594 42.0522 26.3722 42.052L53.0048 41.5749C53.0224 41.5744 53.0398 41.5702 53.0557 41.5625C53.0714 41.5551 53.0854 41.5448 53.0972 41.5321C53.1092 41.5191 53.1187 41.504 53.1253 41.4875C53.1321 41.4703 53.1355 41.4519 53.1355 41.4334V40.4394C53.1356 40.421 53.1321 40.4027 53.1253 40.3856C53.1188 40.3695 53.1092 40.3548 53.0972 40.3423C53.0855 40.3298 53.0714 40.3199 53.0557 40.313C53.0396 40.3063 53.0222 40.3032 53.0048 40.3038L26.3719 40.9722Z" fill="#CCCCCC"/>
<path d="M26.3248 46.4508C26.3119 46.4506 26.2992 46.4536 26.2877 46.4596C26.2762 46.4657 26.266 46.4742 26.2578 46.4844C26.2491 46.4956 26.2424 46.5082 26.2381 46.5217C26.2331 46.5364 26.2306 46.5518 26.2307 46.5673V47.4103C26.2306 47.426 26.2331 47.4415 26.2381 47.4563C26.2426 47.4697 26.2494 47.4823 26.2582 47.4935C26.2664 47.5041 26.2765 47.5129 26.2881 47.5194C26.2995 47.5257 26.3122 47.5291 26.3252 47.5293L52.94 48.025C52.9574 48.0253 52.9747 48.0219 52.9907 48.015C53.0064 48.0083 53.0205 47.9984 53.0323 47.9861C53.0443 47.9735 53.0538 47.9587 53.0603 47.9425C53.0671 47.9254 53.0706 47.9072 53.0706 47.8888V46.8951C53.0706 46.8765 53.0671 46.8581 53.0603 46.8409C53.0538 46.8245 53.0443 46.8094 53.0323 46.7965C53.0205 46.7838 53.0064 46.7736 52.9907 46.7663C52.9748 46.7589 52.9575 46.755 52.94 46.7547L26.3248 46.4508Z" fill="#CCCCCC"/>
<path d="M26.3248 49.193C26.312 49.1926 26.2992 49.1954 26.2877 49.2012C26.2761 49.2072 26.2659 49.2157 26.2578 49.226C26.249 49.2371 26.2421 49.2497 26.2377 49.2633C26.233 49.2776 26.2306 49.2926 26.2307 49.3077V50.1508C26.2306 50.1665 26.2331 50.182 26.2381 50.1969C26.2426 50.2106 26.2494 50.2235 26.2582 50.235C26.2664 50.2457 26.2765 50.2546 26.2881 50.2613C26.2994 50.2678 26.3121 50.2715 26.3252 50.272L52.9399 51.2543C52.9573 51.2549 52.9746 51.2518 52.9907 51.2452C53.0063 51.2387 53.0204 51.2292 53.0322 51.217C53.0443 51.2046 53.0538 51.19 53.0603 51.1739C53.0671 51.1569 53.0706 51.1387 53.0705 51.1203V50.1264C53.0706 50.1078 53.0671 50.0894 53.0603 50.0721C53.0538 50.0555 53.0443 50.0403 53.0322 50.0271C53.0205 50.0143 53.0064 50.0038 52.9907 49.9962C52.9748 49.9886 52.9575 49.9844 52.9399 49.9838L26.3248 49.193Z" fill="#CCCCCC"/>
<path d="M26.3248 51.935C26.3121 51.9345 26.2995 51.9372 26.2881 51.9429C26.2766 51.9485 26.2664 51.9565 26.2582 51.9664C26.2494 51.9772 26.2425 51.9895 26.2381 52.0028C26.2331 52.0173 26.2306 52.0327 26.2307 52.0481V52.8912C26.2306 52.9069 26.2331 52.9225 26.2381 52.9374C26.2426 52.9512 26.2494 52.9642 26.2582 52.9758C26.2664 52.9866 26.2765 52.9958 26.2881 53.0027C26.2994 53.0094 26.3121 53.0132 26.3252 53.014L52.9399 54.4828C52.9569 54.4838 52.974 54.4812 52.9899 54.4751C53.0058 54.4689 53.0202 54.4595 53.0322 54.4473C53.0443 54.4351 53.0538 54.4207 53.0603 54.4047C53.0671 54.3878 53.0706 54.3696 53.0705 54.3514V53.3574C53.0704 53.3207 53.0568 53.2853 53.0322 53.2581C53.0205 53.245 53.0064 53.2343 52.9907 53.2264C52.9749 53.2185 52.9576 53.2139 52.9399 53.213L26.3248 51.935Z" fill="#CCCCCC"/>
<path d="M26.3248 54.6907C26.3121 54.6898 26.2993 54.6921 26.2877 54.6975C26.2763 54.7031 26.2663 54.711 26.2582 54.7209C26.2494 54.7315 26.2425 54.7437 26.2381 54.7569C26.2331 54.7715 26.2306 54.7868 26.2307 54.8022V55.6453C26.2306 55.661 26.2332 55.6767 26.2381 55.6916C26.2426 55.7056 26.2494 55.7187 26.2582 55.7305C26.2664 55.7415 26.2765 55.7508 26.2881 55.7579C26.2993 55.765 26.312 55.7692 26.3252 55.7703L52.9394 57.7278C52.9567 57.7291 52.974 57.7267 52.9902 57.7206C53.0058 57.7148 53.0199 57.7057 53.0317 57.6939C53.0438 57.682 53.0534 57.6677 53.0598 57.652C53.0667 57.6351 53.0701 57.617 53.0701 57.5987V56.6046C53.07 56.5859 53.0666 56.5674 53.0598 56.55C53.0532 56.5331 53.0437 56.5176 53.0317 56.504C53.02 56.4907 53.006 56.4797 52.9902 56.4715C52.9745 56.4633 52.9572 56.4585 52.9394 56.4572L26.3248 54.6907Z" fill="#CCCCCC"/>
<path d="M26.3248 57.4328C26.3121 57.4316 26.2994 57.4338 26.2877 57.439C26.2763 57.4444 26.2662 57.4523 26.2582 57.4621C26.2494 57.4725 26.2426 57.4845 26.2381 57.4974C26.2331 57.5119 26.2306 57.5271 26.2307 57.5424V58.3855C26.2307 58.4013 26.2332 58.417 26.2381 58.432C26.2426 58.4461 26.2494 58.4593 26.2582 58.4712C26.2664 58.4823 26.2765 58.4918 26.2881 58.4991C26.2993 58.5061 26.312 58.5104 26.3252 58.5116L52.9394 60.9564C52.9566 60.958 52.974 60.9559 52.9902 60.9502C53.0058 60.9446 53.0199 60.9358 53.0317 60.9242C53.0438 60.9125 53.0534 60.8984 53.0598 60.8828C53.0667 60.8659 53.0702 60.8479 53.0701 60.8297V59.8357C53.07 59.8169 53.0666 59.7983 53.0598 59.7808C53.0532 59.7638 53.0437 59.7481 53.0317 59.7343C53.02 59.7208 53.006 59.7095 52.9902 59.7011C52.9745 59.6926 52.9572 59.6874 52.9394 59.6858L26.3248 57.4328Z" fill="#CCCCCC"/>
<path d="M26.3248 60.1749C26.3122 60.1735 26.2994 60.1754 26.2877 60.1804C26.2764 60.1854 26.2663 60.193 26.2582 60.2025C26.2493 60.2129 26.2425 60.2249 26.2381 60.2378C26.2331 60.2523 26.2306 60.2676 26.2307 60.2829V61.126C26.2307 61.1418 26.2332 61.1575 26.2381 61.1726C26.2426 61.1868 26.2494 61.2001 26.2582 61.2122C26.2664 61.2235 26.2765 61.2331 26.2881 61.2407C26.2993 61.248 26.312 61.2525 26.3252 61.254L52.9395 64.1851C52.9566 64.187 52.9739 64.1852 52.9902 64.1798C53.0057 64.1746 53.0199 64.1661 53.0318 64.1549C53.0438 64.1434 53.0534 64.1294 53.0598 64.1139C53.0667 64.0972 53.0702 64.0792 53.0701 64.061V63.0667C53.07 63.0479 53.0666 63.0293 53.0598 63.0117C53.0532 62.9946 53.0437 62.9787 53.0318 62.9648C53.02 62.9511 53.006 62.9395 52.9902 62.9308C52.9746 62.922 52.9573 62.9165 52.9395 62.9146L26.3248 60.1749Z" fill="#CCCCCC"/>
<path d="M26.3248 62.9308C26.3122 62.9292 26.2995 62.9308 26.2877 62.9356C26.2764 62.9403 26.2664 62.9474 26.2582 62.9566C26.2493 62.967 26.2424 62.9791 26.2381 62.9921C26.2331 63.0065 26.2306 63.0217 26.2307 63.0369V63.88C26.2307 63.8959 26.2332 63.9116 26.2381 63.9267C26.2427 63.941 26.2495 63.9545 26.2582 63.9667C26.2664 63.9781 26.2765 63.9879 26.2881 63.9957C26.2992 64.0032 26.3119 64.008 26.3252 64.0098L52.9395 67.4301C52.9565 67.4324 52.9738 67.4309 52.9902 67.4257C53.0057 67.4206 53.0199 67.4121 53.0318 67.4009C53.0439 67.3895 53.0534 67.3757 53.0598 67.3604C53.0667 67.3437 53.0702 67.3258 53.0701 67.3077V66.314C53.07 66.2952 53.0666 66.2764 53.0598 66.2588C53.0532 66.2415 53.0437 66.2255 53.0318 66.2114C53.02 66.1974 53.006 66.1857 52.9902 66.1766C52.9746 66.1675 52.9573 66.1617 52.9395 66.1595L26.3248 62.9308Z" fill="#CCCCCC"/>
<path d="M26.3248 65.6728C26.3123 65.671 26.2995 65.6725 26.2877 65.6771C26.2764 65.6817 26.2663 65.6889 26.2582 65.6981C26.2493 65.7081 26.2425 65.7198 26.2381 65.7326C26.2331 65.7469 26.2306 65.7621 26.2307 65.7773V66.6204C26.2307 66.6363 26.2332 66.6521 26.2381 66.6672C26.2427 66.6816 26.2495 66.6952 26.2582 66.7075C26.2664 66.7191 26.2765 66.7291 26.2881 66.7371C26.2992 66.7447 26.3119 66.7497 26.3252 66.7517L52.9394 70.6587C52.9564 70.6613 52.9738 70.6601 52.9902 70.6553C53.0057 70.6506 53.0198 70.6426 53.0318 70.6317C53.0439 70.6205 53.0534 70.6069 53.0598 70.5917C53.0667 70.5751 53.0702 70.5572 53.0701 70.5392V69.5451C53.07 69.5262 53.0665 69.5074 53.0598 69.4897C53.0532 69.4723 53.0437 69.4561 53.0318 69.4418C53.02 69.4277 53.006 69.4157 52.9902 69.4063C52.9746 69.397 52.9574 69.3909 52.9394 69.3883L26.3248 65.6728Z" fill="#CCCCCC"/>
<path d="M26.3248 68.415C26.3124 68.4128 26.2996 68.414 26.2877 68.4184C26.2764 68.4228 26.2663 68.4298 26.2582 68.4389C26.2493 68.4488 26.2425 68.4604 26.2381 68.4731C26.2331 68.4874 26.2306 68.5025 26.2307 68.5176V69.3607C26.2307 69.3767 26.2332 69.3926 26.2381 69.4078C26.2427 69.4223 26.2495 69.436 26.2582 69.4485C26.2664 69.4602 26.2765 69.4704 26.2881 69.4787C26.2992 69.4865 26.3119 69.4917 26.3252 69.494L52.9394 73.8875C52.9564 73.8904 52.9737 73.8895 52.9902 73.885C53.0056 73.8806 53.0198 73.8728 53.0318 73.8621C53.0439 73.8512 53.0534 73.8377 53.0598 73.8226C53.0667 73.8061 53.0702 73.7883 53.0701 73.7704V72.7762C53.07 72.7572 53.0665 72.7383 53.0598 72.7205C53.0532 72.7029 53.0437 72.6865 53.0318 72.672C53.02 72.6577 53.006 72.6454 52.9902 72.6357C52.9747 72.6262 52.9574 72.6197 52.9394 72.6167L26.3248 68.415Z" fill="#CCCCCC"/>
<path d="M60.9586 72.4847C62.4197 72.7131 63.8257 73.2126 65.105 73.9577C67.7942 75.5234 69.8955 77.9354 71.0842 80.8211C71.6786 82.2583 71.9894 83.7979 71.9994 85.3542C72.0153 86.7908 71.7022 88.2118 71.0842 89.5073C70.5191 90.6743 69.6767 91.6834 68.6313 92.4453C67.5853 93.1986 66.3771 93.6929 65.105 93.8882C63.7208 94.0962 62.3087 94.0116 60.959 93.6398C59.5382 93.2563 58.1953 92.6253 56.9913 91.7756C55.8071 90.9439 54.7564 89.9352 53.8755 88.7844C53.0111 87.6622 52.3228 86.4135 51.8347 85.0818C51.3547 83.7799 51.1054 82.4035 51.0982 81.0151C51.0867 79.7242 51.3373 78.4446 51.8347 77.2543C52.2964 76.1535 53.0002 75.172 53.8932 74.3835C54.7863 73.595 55.8455 73.02 56.9913 72.7017C58.2834 72.3466 59.6359 72.2727 60.9586 72.4847Z" fill="#6C63FF"/>
<path d="M59.9716 87.2984L56.9379 82.6134L58.6898 81.5663L60.1415 83.7789L65.2214 79.3884L66.9837 81.3682L59.9716 87.2984Z" fill="white"/>
<path d="M37.8216 81.8391L37.2733 74.2036L38.2581 67.0485L35.4612 66.8587L34.9091 74.7625L36.4694 82.1952C36.3365 82.3798 36.2636 82.6011 36.2607 82.8289C36.2578 83.0568 36.325 83.2799 36.4531 83.4679C36.5812 83.6559 36.7639 83.7995 36.9764 83.8792C37.1888 83.9588 37.4205 83.9705 37.6399 83.9128C37.8592 83.855 38.0554 83.7306 38.2017 83.5565C38.348 83.3824 38.4371 83.1672 38.457 82.9402C38.4769 82.7133 38.4266 82.4857 38.3128 82.2886C38.1991 82.0915 38.0275 81.9345 37.8216 81.8391Z" fill="#9F616A"/>
<path d="M35.1044 67.8871L35.7611 65.0309C35.8869 64.484 36.216 64.0061 36.6811 63.6951C37.1463 63.3842 37.7121 63.2637 38.2627 63.3585C38.8133 63.4532 39.3071 63.756 39.6427 64.2048C39.9783 64.6535 40.1305 65.2142 40.068 65.7721L39.7063 68.9994L35.1044 67.8871Z" fill="#CBCBCB"/>
<path d="M40.2821 106.716L41.6007 106.716L42.2279 101.605L40.282 101.605L40.2821 106.716Z" fill="#9F616A"/>
<path d="M39.9458 106.283L42.5425 106.283H42.5426C42.9815 106.283 43.4023 106.458 43.7127 106.77C44.023 107.082 44.1974 107.505 44.1974 107.946V108L39.9459 108L39.9458 106.283Z" fill="#2F2E41"/>
<path d="M46.8511 106.672L48.1186 106.307L47.3213 101.221L45.4504 101.759L46.8511 106.672Z" fill="#9F616A"/>
<path d="M46.4092 106.349L48.9055 105.631L48.9056 105.631C49.3275 105.509 49.7801 105.561 50.1639 105.775C50.5477 105.989 50.8312 106.348 50.952 106.772L50.9668 106.824L46.8797 108L46.4092 106.349Z" fill="#2F2E41"/>
<path d="M39.5695 104.861L40.1828 89.3797L38.59 82.3739C36.4464 78.7625 38.7589 73.0019 38.7825 72.9441L38.7911 72.9231L38.8136 72.92L44.4208 72.1566L44.4995 72.3382C46.6927 77.3768 47.3014 82.9685 46.244 88.3644L45.6604 91.3638L48.5447 103.066L45.8149 104.437L43.7205 98.9798L42.3049 104.564L39.5695 104.861Z" fill="#2F2E41"/>
<path d="M38.0441 74.38L36.2148 68.994C35.0776 66.9816 35.7989 65.195 36.6043 64.0506C37.474 62.8149 37.5263 62.1219 37.5378 62.1142L37.5471 62.108L39.9505 62.0348L42.1748 64.306C42.3147 64.2511 43.4965 67.1778 43.3963 67.3249L44.9498 72.3712L38.0441 74.38Z" fill="#CBCBCB"/>
<path d="M52.8557 75.3114L46.8298 70.6276L42.1829 65.1167L40.1761 67.0836L45.6668 72.7701L52.2175 76.5612C52.2657 76.7838 52.3811 76.986 52.548 77.1402C52.715 77.2944 52.9252 77.393 53.15 77.4225C53.3749 77.4521 53.6033 77.4111 53.804 77.3052C54.0048 77.1993 54.1681 77.0337 54.2716 76.831C54.3752 76.6283 54.4138 76.3984 54.3824 76.1728C54.3509 75.9471 54.2509 75.7368 54.0959 75.5705C53.9409 75.4042 53.7386 75.29 53.5166 75.2436C53.2946 75.1973 53.0638 75.221 52.8557 75.3114Z" fill="#9F616A"/>
<path d="M39.6059 69.0763L37.9268 66.6792C37.6053 66.2201 37.4707 65.6549 37.5505 65.0993C37.6303 64.5437 37.9185 64.0398 38.3561 63.6909C38.7937 63.3419 39.3476 63.1744 39.9041 63.2225C40.4607 63.2707 40.9779 63.5309 41.3497 63.9499L43.5008 66.3738L39.6059 69.0763Z" fill="#CBCBCB"/>
<path d="M38.4661 61.3745C40.0423 61.3745 41.3201 60.0905 41.3201 58.5066C41.3201 56.9227 40.0423 55.6387 38.4661 55.6387C36.8899 55.6387 35.6121 56.9227 35.6121 58.5066C35.6121 60.0905 36.8899 61.3745 38.4661 61.3745Z" fill="#9F616A"/>
<path d="M41.368 57.0517H36.8362V55.0667C37.8309 54.6696 38.8043 54.3319 39.3926 55.0667C39.9165 55.0667 40.419 55.2758 40.7894 55.6481C41.1599 56.0203 41.368 56.5252 41.368 57.0517V57.0517Z" fill="#2F2E41"/>
<path d="M37.4608 54.5907C33.3087 54.4767 34.095 61.3504 34.095 61.3504C34.095 61.3504 34.8783 61.4545 35.2358 61.5157L35.6675 61.2714L36.132 61.5775C36.3452 61.5786 36.5693 61.5745 36.8016 61.5701L37.0145 61.1295L37.4894 61.5622C38.3537 61.5635 40.6995 61.5875 40.6995 61.5875C40.6995 61.5875 42.1131 54.7183 37.4608 54.5907Z" fill="#2F2E41"/>
<path d="M20.7314 66.3677C20.7478 66.2333 20.7347 66.0969 20.693 65.9682C20.6512 65.8394 20.5819 65.7214 20.4898 65.6225C20.3978 65.5235 20.2853 65.4461 20.1603 65.3956C20.0352 65.345 19.9007 65.3227 19.7661 65.3301L18.8539 63.422L17.5647 63.6962L18.8906 66.3727C18.918 66.599 19.027 66.8074 19.197 66.9584C19.3671 67.1094 19.5863 67.1924 19.8132 67.1918C20.0401 67.1912 20.2589 67.107 20.4282 66.9551C20.5974 66.8032 20.7053 66.5942 20.7314 66.3677H20.7314Z" fill="#FFB7B7"/>
<path d="M0.927551 88.5217L2.00048 89.0736L4.62907 85.1774L3.04549 84.3632L0.927551 88.5217Z" fill="#FFB7B7"/>
<path d="M0.833225 88.0291L2.94625 89.1157L2.94633 89.1157C3.30344 89.2994 3.57332 89.6181 3.6966 90.0017C3.81989 90.3853 3.78648 90.8024 3.60373 91.1613L3.58133 91.2053L0.121704 89.4262L0.833225 88.0291Z" fill="#2F2E41"/>
<path d="M13.3197 90.0312H14.5249L15.0982 85.3595L13.3194 85.3597L13.3197 90.0312Z" fill="#FFB7B7"/>
<path d="M13.0122 89.6358L15.3858 89.6357H15.3859C15.7871 89.6357 16.1718 89.7959 16.4555 90.081C16.7392 90.366 16.8986 90.7526 16.8986 91.1557V91.2051L13.0122 91.2053L13.0122 89.6358Z" fill="#2F2E41"/>
<path d="M7.68178 51.9263C7.68178 51.9263 6.87466 51.3049 6.87466 52.8227L6.74722 57.8384L8.17029 62.5766L8.99865 61.0399L8.65881 57.7103L7.68178 51.9263Z" fill="#6C63FF"/>
<path d="M16.3155 65.645C16.3155 65.645 17.2515 70.2252 16.066 73.984L15.4108 88.4361L13.0086 88.2481L12.1662 77.5265L11.3551 72.1971L9.67043 77.0563L4.11723 87.3389L1.55902 85.3325C1.55902 85.3325 4.39393 77.5596 6.48826 75.9277L7.53863 63.9062L16.3155 65.645Z" fill="#2F2E41"/>
<path d="M13.4681 45.8026C14.9808 45.8026 16.2071 44.5703 16.2071 43.0502C16.2071 41.5301 14.9808 40.2978 13.4681 40.2978C11.9553 40.2978 10.729 41.5301 10.729 43.0502C10.729 44.5703 11.9553 45.8026 13.4681 45.8026Z" fill="#FFB8B8"/>
<path d="M13.2742 43.634C13.6026 43.6769 13.8503 43.3393 13.9651 43.0273C14.08 42.7152 14.1675 42.3519 14.453 42.1834C14.843 41.9531 15.342 42.2301 15.788 42.1541C16.2917 42.0683 16.6192 41.5319 16.6449 41.0192C16.6705 40.5065 16.4675 40.0134 16.2683 39.5407L16.1987 40.1281C16.208 39.929 16.1663 39.7308 16.0776 39.5526C15.9889 39.3743 15.8562 39.2218 15.6921 39.1098L15.7817 39.9719C15.7627 39.8529 15.7204 39.7389 15.6574 39.6365C15.5944 39.534 15.5118 39.445 15.4145 39.3747C15.3172 39.3044 15.207 39.254 15.0903 39.2266C14.9735 39.1992 14.8526 39.1951 14.7343 39.2148L14.7484 39.7284C14.1689 39.6386 13.5818 39.6098 12.9964 39.6423C12.407 39.6765 11.843 39.8949 11.3831 40.2669C10.7216 40.8444 10.48 41.7955 10.5612 42.6723C10.6423 43.5491 11.0025 44.3729 11.3779 45.1685C11.4723 45.3688 11.603 45.5947 11.822 45.6202C11.9213 45.6216 12.0182 45.5897 12.0975 45.5297C12.1768 45.4696 12.234 45.3847 12.26 45.2884C12.3071 45.0942 12.3053 44.8911 12.2547 44.6977C12.1772 44.4066 12.1524 44.1039 12.1816 43.804C12.2337 43.5078 12.4457 43.2152 12.7428 43.1789C13.0398 43.1426 13.3438 43.4838 13.201 43.7481L13.2742 43.634Z" fill="#2F2E41"/>
<path d="M10.8465 46.8039L11.42 46.0038C11.42 46.0038 12.061 46.2227 13.7776 47.0814L13.8989 47.8309L16.8786 66.2476L11.4625 66.0128L9.98755 65.9813L8.90969 65.9583L7.46937 65.9275L7.44814 60.6343L7.91541 56.5791L7.19325 52.7587C7.19325 52.7587 6.28453 49.2504 9.78452 47.3588L10.8465 46.8039Z" fill="#6C63FF"/>
<path d="M18.3529 65.388L18.5496 66.0796L19.9258 65.1787L19.4065 64.5814L18.3529 65.388Z" fill="#CBCBCB"/>
<path d="M11.871 49.0298C11.871 49.0298 14.0046 46.2928 15.2941 49.3433L15.7007 52.5402C15.7007 52.5402 17.2628 56.5138 17.3098 58.1215C17.3098 58.1215 18.3689 60.2198 18.3592 61.3219L19.9259 64.8862L18.319 65.8886L13.8716 59.0364L11.871 49.0298Z" fill="#6C63FF"/>
</g>
<defs>
<clipPath id="clip0_4_83">
<rect width="72" height="108" fill="white"/>
</clipPath>
</defs>
</svg>
