<svg width="20" height="20" viewBox="0 0 20 20" fill="none" xmlns="http://www.w3.org/2000/svg">
<path d="M0.375 14.125C0.375 13.7603 0.519866 13.4106 0.777728 13.1527C1.03559 12.8949 1.38533 12.75 1.75 12.75H4.5C4.86467 12.75 5.21441 12.8949 5.47227 13.1527C5.73013 13.4106 5.875 13.7603 5.875 14.125V18.25C5.875 18.6147 5.73013 18.9644 5.47227 19.2223C5.21441 19.4801 4.86467 19.625 4.5 19.625H1.75C1.38533 19.625 1.03559 19.4801 0.777728 19.2223C0.519866 18.9644 0.375 18.6147 0.375 18.25V14.125ZM7.25 8.625C7.25 8.26033 7.39487 7.91059 7.65273 7.65273C7.91059 7.39487 8.26033 7.25 8.625 7.25H11.375C11.7397 7.25 12.0894 7.39487 12.3473 7.65273C12.6051 7.91059 12.75 8.26033 12.75 8.625V18.25C12.75 18.6147 12.6051 18.9644 12.3473 19.2223C12.0894 19.4801 11.7397 19.625 11.375 19.625H8.625C8.26033 19.625 7.91059 19.4801 7.65273 19.2223C7.39487 18.9644 7.25 18.6147 7.25 18.25V8.625ZM14.125 1.75C14.125 1.38533 14.2699 1.03559 14.5277 0.777728C14.7856 0.519866 15.1353 0.375 15.5 0.375H18.25C18.6147 0.375 18.9644 0.519866 19.2223 0.777728C19.4801 1.03559 19.625 1.38533 19.625 1.75V18.25C19.625 18.6147 19.4801 18.9644 19.2223 19.2223C18.9644 19.4801 18.6147 19.625 18.25 19.625H15.5C15.1353 19.625 14.7856 19.4801 14.5277 19.2223C14.2699 18.9644 14.125 18.6147 14.125 18.25V1.75Z" fill="white"/>
</svg>
